<svg width="445" height="687" viewBox="0 0 445 687" fill="none" xmlns="http://www.w3.org/2000/svg">
<g clip-path="url(#clip0_27_24)">
<path d="M2.66869 682.878V3.77661H442.33L444.779 0H0V686.659H444.779L442.33 682.878H2.66869Z" fill="url(#paint0_linear_27_24)"/>
<path d="M17.124 669.489V17.1667H439.884L440.553 13.3901H14.6777V673.952H440.774L440.108 670.176H17.124V669.489Z" fill="url(#paint1_linear_27_24)"/>
<path d="M31.5796 656.441V30.2127H437.438L438.108 26.436H29.1333V660.563H438.108L437.438 656.787H31.5796V656.441Z" fill="url(#paint2_linear_27_24)"/>
<path d="M46.0344 643.399V43.2595H434.772L435.437 39.4829H43.3657V647.515H435.437L434.772 643.74H46.0344V643.399Z" fill="url(#paint3_linear_27_24)"/>
<path d="M60.49 630.35V56.3058H432.322L432.992 52.5288H57.8213V634.472H432.992L432.322 630.696H60.49V630.35Z" fill="url(#paint4_linear_27_24)"/>
<path d="M74.945 617.302V69.3522H429.877L430.546 65.5752H72.2764V621.078H430.546L429.877 617.302H74.945Z" fill="url(#paint5_linear_27_24)"/>
<path d="M89.1781 604.26V82.3985H426.986L427.655 78.6221H86.7319V608.036H427.876L427.21 604.26H89.1781Z" fill="url(#paint6_linear_27_24)"/>
<path d="M103.633 591.212V95.4454H424.54L425.206 91.6689H101.187V594.988H425.43L424.764 591.212H103.633Z" fill="url(#paint7_linear_27_24)"/>
<path d="M118.089 577.823V108.835H422.094L422.76 105.059H115.642V582.286H422.984L422.315 578.51H118.089V577.823Z" fill="url(#paint8_linear_27_24)"/>
<path d="M132.544 564.775V121.882H419.424L420.093 118.105H130.098V568.897H420.314L419.648 565.121H132.544V564.775Z" fill="url(#paint9_linear_27_24)"/>
<path d="M416.978 551.727H146.999V134.928H416.978L417.648 131.151H144.553V555.849H417.868L416.978 551.727Z" fill="url(#paint10_linear_27_24)"/>
<path d="M161.454 538.684V147.974H414.532L415.198 144.198H158.786V542.46H415.198L414.532 538.684H161.454Z" fill="url(#paint11_linear_27_24)"/>
<path d="M175.91 525.636V161.021H412.087L412.752 157.244H173.241V529.412H412.752L412.087 525.636H175.91Z" fill="url(#paint12_linear_27_24)"/>
<path d="M190.142 512.588V174.411H409.196L409.862 170.634H187.474V516.71H409.862L409.196 512.934H190.142V512.588Z" fill="url(#paint13_linear_27_24)"/>
<path d="M204.598 499.199V187.114H406.75L407.416 183.337H201.929V503.319H407.416L406.75 499.543H204.598V499.199Z" fill="url(#paint14_linear_27_24)"/>
<path d="M219.053 486.153V200.16H404.304L404.97 196.384H216.607V489.93H404.97L404.304 486.153H219.053Z" fill="url(#paint15_linear_27_24)"/>
<path d="M233.509 473.106V213.55H401.634L402.303 209.773H230.84V477.226H402.303L401.634 473.45H233.509V473.106Z" fill="url(#paint16_linear_27_24)"/>
<path d="M247.964 460.06V226.597H399.188L399.854 222.82H245.295V464.18H399.854L399.188 460.403H247.964V460.06Z" fill="url(#paint17_linear_27_24)"/>
<path d="M262.419 447.013V239.643H396.742L397.408 235.866H259.75V450.79H397.408L396.742 447.013H262.419Z" fill="url(#paint18_linear_27_24)"/>
<path d="M276.874 433.967V253.033H394.072L394.742 249.256H274.206V438.087H394.742L394.072 434.31H276.874V433.967Z" fill="url(#paint19_linear_27_24)"/>
<path d="M291.107 420.921V266.08H391.406L392.071 262.303H288.438V425.041H392.071L391.406 421.264H291.107V420.921Z" fill="url(#paint20_linear_27_24)"/>
<path d="M305.562 407.53V278.782H388.957L389.626 275.006H302.894V411.65H389.626L388.957 407.874H305.562V407.53Z" fill="url(#paint21_linear_27_24)"/>
<path d="M445 0V686.659H443.22L388.959 407.531V279.126L442.554 3.77661L445 0Z" fill="url(#paint22_linear_27_24)"/>
</g>
<defs>
<linearGradient id="paint0_linear_27_24" x1="0.205489" y1="686.659" x2="626.843" y2="280.757" gradientUnits="userSpaceOnUse">
<stop stop-color="#7D7CF9"/>
<stop offset="1" stop-color="#E91FA8"/>
</linearGradient>
<linearGradient id="paint1_linear_27_24" x1="14.1858" y1="672.873" x2="615.665" y2="283.269" gradientUnits="userSpaceOnUse">
<stop stop-color="#7D7CF9"/>
<stop offset="1" stop-color="#E91FA8"/>
</linearGradient>
<linearGradient id="paint2_linear_27_24" x1="28.6101" y1="659.774" x2="606.182" y2="285.655" gradientUnits="userSpaceOnUse">
<stop stop-color="#7D7CF9"/>
<stop offset="1" stop-color="#E91FA8"/>
</linearGradient>
<linearGradient id="paint3_linear_27_24" x1="43.0331" y1="646.676" x2="596.699" y2="288.043" gradientUnits="userSpaceOnUse">
<stop stop-color="#7D7CF9"/>
<stop offset="1" stop-color="#E91FA8"/>
</linearGradient>
<linearGradient id="paint4_linear_27_24" x1="57.4567" y1="633.577" x2="587.215" y2="290.43" gradientUnits="userSpaceOnUse">
<stop stop-color="#7D7CF9"/>
<stop offset="1" stop-color="#E91FA8"/>
</linearGradient>
<linearGradient id="paint5_linear_27_24" x1="71.8805" y1="620.478" x2="577.732" y2="292.818" gradientUnits="userSpaceOnUse">
<stop stop-color="#7D7CF9"/>
<stop offset="1" stop-color="#E91FA8"/>
</linearGradient>
<linearGradient id="paint6_linear_27_24" x1="86.3044" y1="607.379" x2="568.247" y2="295.204" gradientUnits="userSpaceOnUse">
<stop stop-color="#7D7CF9"/>
<stop offset="1" stop-color="#E91FA8"/>
</linearGradient>
<linearGradient id="paint7_linear_27_24" x1="100.727" y1="594.281" x2="558.763" y2="297.592" gradientUnits="userSpaceOnUse">
<stop stop-color="#7D7CF9"/>
<stop offset="1" stop-color="#E91FA8"/>
</linearGradient>
<linearGradient id="paint8_linear_27_24" x1="115.151" y1="581.182" x2="549.28" y2="299.979" gradientUnits="userSpaceOnUse">
<stop stop-color="#7D7CF9"/>
<stop offset="1" stop-color="#E91FA8"/>
</linearGradient>
<linearGradient id="paint9_linear_27_24" x1="129.575" y1="568.088" x2="539.799" y2="302.367" gradientUnits="userSpaceOnUse">
<stop stop-color="#7D7CF9"/>
<stop offset="1" stop-color="#E91FA8"/>
</linearGradient>
<linearGradient id="paint10_linear_27_24" x1="144.002" y1="554.994" x2="530.301" y2="304.771" gradientUnits="userSpaceOnUse">
<stop stop-color="#7D7CF9"/>
<stop offset="1" stop-color="#E91FA8"/>
</linearGradient>
<linearGradient id="paint11_linear_27_24" x1="158.422" y1="541.89" x2="520.815" y2="307.153" gradientUnits="userSpaceOnUse">
<stop stop-color="#7D7CF9"/>
<stop offset="1" stop-color="#E91FA8"/>
</linearGradient>
<linearGradient id="paint12_linear_27_24" x1="172.846" y1="528.792" x2="511.329" y2="309.539" gradientUnits="userSpaceOnUse">
<stop stop-color="#7D7CF9"/>
<stop offset="1" stop-color="#E91FA8"/>
</linearGradient>
<linearGradient id="paint13_linear_27_24" x1="187.269" y1="515.692" x2="501.845" y2="311.927" gradientUnits="userSpaceOnUse">
<stop stop-color="#7D7CF9"/>
<stop offset="1" stop-color="#E91FA8"/>
</linearGradient>
<linearGradient id="paint14_linear_27_24" x1="201.694" y1="502.593" x2="492.362" y2="314.314" gradientUnits="userSpaceOnUse">
<stop stop-color="#7D7CF9"/>
<stop offset="1" stop-color="#E91FA8"/>
</linearGradient>
<linearGradient id="paint15_linear_27_24" x1="216.117" y1="489.495" x2="482.879" y2="316.701" gradientUnits="userSpaceOnUse">
<stop stop-color="#7D7CF9"/>
<stop offset="1" stop-color="#E91FA8"/>
</linearGradient>
<linearGradient id="paint16_linear_27_24" x1="230.541" y1="476.396" x2="473.396" y2="319.088" gradientUnits="userSpaceOnUse">
<stop stop-color="#7D7CF9"/>
<stop offset="1" stop-color="#E91FA8"/>
</linearGradient>
<linearGradient id="paint17_linear_27_24" x1="244.964" y1="463.297" x2="463.91" y2="321.475" gradientUnits="userSpaceOnUse">
<stop stop-color="#7D7CF9"/>
<stop offset="1" stop-color="#E91FA8"/>
</linearGradient>
<linearGradient id="paint18_linear_27_24" x1="259.388" y1="450.198" x2="454.427" y2="323.862" gradientUnits="userSpaceOnUse">
<stop stop-color="#7D7CF9"/>
<stop offset="1" stop-color="#E91FA8"/>
</linearGradient>
<linearGradient id="paint19_linear_27_24" x1="273.812" y1="437.1" x2="444.944" y2="326.25" gradientUnits="userSpaceOnUse">
<stop stop-color="#7D7CF9"/>
<stop offset="1" stop-color="#E91FA8"/>
</linearGradient>
<linearGradient id="paint20_linear_27_24" x1="288.235" y1="424.002" x2="435.461" y2="328.637" gradientUnits="userSpaceOnUse">
<stop stop-color="#7D7CF9"/>
<stop offset="1" stop-color="#E91FA8"/>
</linearGradient>
<linearGradient id="paint21_linear_27_24" x1="302.659" y1="410.903" x2="425.978" y2="331.025" gradientUnits="userSpaceOnUse">
<stop stop-color="#7D7CF9"/>
<stop offset="1" stop-color="#E91FA8"/>
</linearGradient>
<linearGradient id="paint22_linear_27_24" x1="332.903" y1="516.359" x2="647.469" y2="312.602" gradientUnits="userSpaceOnUse">
<stop stop-color="#7D7CF9"/>
<stop offset="1" stop-color="#E91FA8"/>
</linearGradient>
<clipPath id="clip0_27_24">
<rect width="445" height="687" fill="white"/>
</clipPath>
</defs>
</svg>
