<svg width="241" height="60" viewBox="0 0 241 60" fill="none" xmlns="http://www.w3.org/2000/svg">
<path d="M25.48 29.6C27.1067 29.9467 28.4133 30.76 29.4 32.04C30.3867 33.2933 30.88 34.7333 30.88 36.36C30.88 38.7067 30.0533 40.5733 28.4 41.96C26.7733 43.32 24.4933 44 21.56 44H8.48V15.92H21.12C23.9733 15.92 26.2 16.5733 27.8 17.88C29.4267 19.1867 30.24 20.96 30.24 23.2C30.24 24.8533 29.8 26.2267 28.92 27.32C28.0667 28.4133 26.92 29.1733 25.48 29.6ZM15.32 27.28H19.8C20.92 27.28 21.7733 27.04 22.36 26.56C22.9733 26.0533 23.28 25.32 23.28 24.36C23.28 23.4 22.9733 22.6667 22.36 22.16C21.7733 21.6533 20.92 21.4 19.8 21.4H15.32V27.28ZM20.36 38.48C21.5067 38.48 22.3867 38.2267 23 37.72C23.64 37.1867 23.96 36.4267 23.96 35.44C23.96 34.4533 23.6267 33.68 22.96 33.12C22.32 32.56 21.4267 32.28 20.28 32.28H15.32V38.48H20.36ZM41.6872 25.4C42.4872 24.1733 43.4872 23.2133 44.6872 22.52C45.8872 21.8 47.2205 21.44 48.6872 21.44V28.68H46.8072C45.1005 28.68 43.8205 29.0533 42.9672 29.8C42.1139 30.52 41.6872 31.8 41.6872 33.64V44H34.8472V21.68H41.6872V25.4ZM50.5966 32.8C50.5966 30.5067 51.0232 28.4933 51.8766 26.76C52.7566 25.0267 53.9432 23.6933 55.4366 22.76C56.9299 21.8267 58.5966 21.36 60.4366 21.36C62.0099 21.36 63.3832 21.68 64.5566 22.32C65.7566 22.96 66.6766 23.8 67.3166 24.84V21.68H74.1566V44H67.3166V40.84C66.6499 41.88 65.7166 42.72 64.5166 43.36C63.3432 44 61.9699 44.32 60.3966 44.32C58.5832 44.32 56.9299 43.8533 55.4366 42.92C53.9432 41.96 52.7566 40.6133 51.8766 38.88C51.0232 37.12 50.5966 35.0933 50.5966 32.8ZM67.3166 32.84C67.3166 31.1333 66.8366 29.7867 65.8766 28.8C64.9432 27.8133 63.7966 27.32 62.4366 27.32C61.0766 27.32 59.9166 27.8133 58.9566 28.8C58.0232 29.76 57.5566 31.0933 57.5566 32.8C57.5566 34.5067 58.0232 35.8667 58.9566 36.88C59.9166 37.8667 61.0766 38.36 62.4366 38.36C63.7966 38.36 64.9432 37.8667 65.8766 36.88C66.8366 35.8933 67.3166 34.5467 67.3166 32.84ZM82.545 19.36C81.345 19.36 80.3583 19.0133 79.585 18.32C78.8383 17.6 78.465 16.72 78.465 15.68C78.465 14.6133 78.8383 13.7333 79.585 13.04C80.3583 12.32 81.345 11.96 82.545 11.96C83.7183 11.96 84.6783 12.32 85.425 13.04C86.1983 13.7333 86.585 14.6133 86.585 15.68C86.585 16.72 86.1983 17.6 85.425 18.32C84.6783 19.0133 83.7183 19.36 82.545 19.36ZM85.945 21.68V44H79.105V21.68H85.945ZM104.502 21.44C107.115 21.44 109.195 22.2933 110.742 24C112.315 25.68 113.102 28 113.102 30.96V44H106.302V31.88C106.302 30.3867 105.915 29.2267 105.142 28.4C104.369 27.5733 103.329 27.16 102.022 27.16C100.715 27.16 99.6752 27.5733 98.9019 28.4C98.1285 29.2267 97.7419 30.3867 97.7419 31.88V44H90.9019V21.68H97.7419V24.64C98.4352 23.6533 99.3685 22.88 100.542 22.32C101.715 21.7333 103.035 21.44 104.502 21.44Z" fill="white"/>
<path d="M136.492 44.28C134.438 44.28 132.598 43.9467 130.972 43.28C129.345 42.6133 128.038 41.6267 127.052 40.32C126.092 39.0133 125.585 37.44 125.532 35.6H132.812C132.918 36.64 133.278 37.44 133.892 38C134.505 38.5333 135.305 38.8 136.292 38.8C137.305 38.8 138.105 38.5733 138.692 38.12C139.278 37.64 139.572 36.9867 139.572 36.16C139.572 35.4667 139.332 34.8933 138.852 34.44C138.398 33.9867 137.825 33.6133 137.132 33.32C136.465 33.0267 135.505 32.6933 134.252 32.32C132.438 31.76 130.958 31.2 129.812 30.64C128.665 30.08 127.678 29.2533 126.852 28.16C126.025 27.0667 125.612 25.64 125.612 23.88C125.612 21.2667 126.558 19.2267 128.452 17.76C130.345 16.2667 132.812 15.52 135.852 15.52C138.945 15.52 141.438 16.2667 143.332 17.76C145.225 19.2267 146.238 21.28 146.372 23.92H138.972C138.918 23.0133 138.585 22.3067 137.972 21.8C137.358 21.2667 136.572 21 135.612 21C134.785 21 134.118 21.2267 133.612 21.68C133.105 22.1067 132.852 22.7333 132.852 23.56C132.852 24.4667 133.278 25.1733 134.132 25.68C134.985 26.1867 136.318 26.7333 138.132 27.32C139.945 27.9333 141.412 28.52 142.532 29.08C143.678 29.64 144.665 30.4533 145.492 31.52C146.318 32.5867 146.732 33.96 146.732 35.64C146.732 37.24 146.318 38.6933 145.492 40C144.692 41.3067 143.518 42.3467 141.972 43.12C140.425 43.8933 138.598 44.28 136.492 44.28ZM163.381 38.2V44H159.901C157.421 44 155.488 43.4 154.101 42.2C152.714 40.9733 152.021 38.9867 152.021 36.24V27.36H149.301V21.68H152.021V16.24H158.861V21.68H163.341V27.36H158.861V36.32C158.861 36.9867 159.021 37.4667 159.341 37.76C159.661 38.0533 160.194 38.2 160.941 38.2H163.381ZM165.831 32.8C165.831 30.5067 166.258 28.4933 167.111 26.76C167.991 25.0267 169.178 23.6933 170.671 22.76C172.164 21.8267 173.831 21.36 175.671 21.36C177.244 21.36 178.618 21.68 179.791 22.32C180.991 22.96 181.911 23.8 182.551 24.84V21.68H189.391V44H182.551V40.84C181.884 41.88 180.951 42.72 179.751 43.36C178.578 44 177.204 44.32 175.631 44.32C173.818 44.32 172.164 43.8533 170.671 42.92C169.178 41.96 167.991 40.6133 167.111 38.88C166.258 37.12 165.831 35.0933 165.831 32.8ZM182.551 32.84C182.551 31.1333 182.071 29.7867 181.111 28.8C180.178 27.8133 179.031 27.32 177.671 27.32C176.311 27.32 175.151 27.8133 174.191 28.8C173.258 29.76 172.791 31.0933 172.791 32.8C172.791 34.5067 173.258 35.8667 174.191 36.88C175.151 37.8667 176.311 38.36 177.671 38.36C179.031 38.36 180.178 37.8667 181.111 36.88C182.071 35.8933 182.551 34.5467 182.551 32.84ZM192.979 32.84C192.979 30.52 193.446 28.4933 194.379 26.76C195.339 25.0267 196.659 23.6933 198.339 22.76C200.046 21.8267 201.993 21.36 204.179 21.36C206.979 21.36 209.313 22.0933 211.179 23.56C213.073 25.0267 214.313 27.0933 214.899 29.76H207.619C207.006 28.0533 205.819 27.2 204.059 27.2C202.806 27.2 201.806 27.6933 201.059 28.68C200.313 29.64 199.939 31.0267 199.939 32.84C199.939 34.6533 200.313 36.0533 201.059 37.04C201.806 38 202.806 38.48 204.059 38.48C205.819 38.48 207.006 37.6267 207.619 35.92H214.899C214.313 38.5333 213.073 40.5867 211.179 42.08C209.286 43.5733 206.953 44.32 204.179 44.32C201.993 44.32 200.046 43.8533 198.339 42.92C196.659 41.9867 195.339 40.6533 194.379 38.92C193.446 37.1867 192.979 35.16 192.979 32.84ZM232.198 44L225.398 34.64V44H218.558V14.4H225.398V30.76L232.158 21.68H240.598L231.318 32.88L240.678 44H232.198Z" fill="#DB2777"/>
<rect x="0.5" y="6.5" width="120" height="46" fill="#D9D9D9" fill-opacity="0.03" stroke="white"/>
</svg>
